<svg width="1235" height="439" viewBox="0 0 1235 439" fill="none" xmlns="http://www.w3.org/2000/svg">
<path d="M630.32 262.761H631.76V287.021H630.28V264.441C629.707 265.001 629.053 265.434 628.32 265.741C627.6 266.034 626.88 266.201 626.16 266.241V264.721C626.947 264.574 627.7 264.348 628.42 264.041C629.153 263.721 629.787 263.294 630.32 262.761ZM647.208 287.421C645.408 287.421 643.842 286.954 642.508 286.021C641.188 285.074 640.162 283.674 639.428 281.821C638.708 279.954 638.348 277.634 638.348 274.861C638.348 272.101 638.708 269.801 639.428 267.961C640.162 266.108 641.188 264.721 642.508 263.801C643.842 262.868 645.408 262.401 647.208 262.401C649.022 262.401 650.588 262.868 651.908 263.801C653.242 264.721 654.275 266.108 655.008 267.961C655.742 269.801 656.108 272.101 656.108 274.861C656.108 277.634 655.742 279.954 655.008 281.821C654.275 283.674 653.242 285.074 651.908 286.021C650.588 286.954 649.022 287.421 647.208 287.421ZM647.208 286.021C649.675 286.021 651.515 285.041 652.728 283.081C653.942 281.108 654.548 278.368 654.548 274.861C654.548 271.354 653.942 268.628 652.728 266.681C651.515 264.734 649.675 263.761 647.208 263.761C644.795 263.761 642.975 264.734 641.748 266.681C640.522 268.628 639.908 271.354 639.908 274.861C639.908 278.368 640.522 281.108 641.748 283.081C642.975 285.041 644.795 286.021 647.208 286.021ZM669.357 287.421C667.557 287.421 665.99 286.954 664.657 286.021C663.337 285.074 662.31 283.674 661.577 281.821C660.857 279.954 660.497 277.634 660.497 274.861C660.497 272.101 660.857 269.801 661.577 267.961C662.31 266.108 663.337 264.721 664.657 263.801C665.99 262.868 667.557 262.401 669.357 262.401C671.17 262.401 672.737 262.868 674.057 263.801C675.39 264.721 676.424 266.108 677.157 267.961C677.89 269.801 678.257 272.101 678.257 274.861C678.257 277.634 677.89 279.954 677.157 281.821C676.424 283.674 675.39 285.074 674.057 286.021C672.737 286.954 671.17 287.421 669.357 287.421ZM669.357 286.021C671.824 286.021 673.664 285.041 674.877 283.081C676.09 281.108 676.697 278.368 676.697 274.861C676.697 271.354 676.09 268.628 674.877 266.681C673.664 264.734 671.824 263.761 669.357 263.761C666.944 263.761 665.124 264.734 663.897 266.681C662.67 268.628 662.057 271.354 662.057 274.861C662.057 278.368 662.67 281.108 663.897 283.081C665.124 285.041 666.944 286.021 669.357 286.021Z" fill="#252525"/>
<path d="M889.36 209.079V184.819H897.26C899.887 184.819 901.84 185.465 903.12 186.759C904.4 188.039 905.04 189.692 905.04 191.719C905.04 193.759 904.4 195.425 903.12 196.719C901.84 197.999 899.887 198.639 897.26 198.639H890.84V209.079H889.36ZM903.48 209.079L895.96 198.459H897.68L905.36 209.079H903.48ZM890.84 197.419H897.28C899.307 197.419 900.853 196.892 901.92 195.839C902.987 194.772 903.52 193.385 903.52 191.679C903.52 189.932 902.98 188.559 901.9 187.559C900.833 186.559 899.287 186.059 897.26 186.059H890.84V197.419ZM918.603 209.479C916.95 209.479 915.51 209.059 914.283 208.219C913.056 207.365 912.103 206.205 911.423 204.739C910.743 203.272 910.403 201.612 910.403 199.759C910.403 197.705 910.736 195.939 911.403 194.459C912.083 192.979 913.036 191.839 914.263 191.039C915.49 190.239 916.936 189.839 918.603 189.839C919.95 189.839 921.083 190.112 922.003 190.659C922.936 191.205 923.683 191.952 924.243 192.899C924.816 193.845 925.23 194.912 925.483 196.099C925.736 197.285 925.863 198.519 925.863 199.799H911.663V198.519H925.123L924.203 199.119C924.243 198.185 924.183 197.252 924.023 196.319C923.876 195.372 923.596 194.505 923.183 193.719C922.77 192.932 922.19 192.299 921.443 191.819C920.696 191.339 919.75 191.099 918.603 191.099C917.11 191.099 915.863 191.485 914.863 192.259C913.876 193.032 913.136 194.032 912.643 195.259C912.163 196.472 911.923 197.745 911.923 199.079V199.759C911.923 201.332 912.163 202.759 912.643 204.039C913.136 205.305 913.876 206.312 914.863 207.059C915.863 207.805 917.11 208.179 918.603 208.179C920.163 208.179 921.43 207.792 922.403 207.019C923.39 206.245 923.97 205.105 924.143 203.599H925.823C925.623 204.879 925.19 205.959 924.523 206.839C923.856 207.705 923.016 208.365 922.003 208.819C920.99 209.259 919.856 209.479 918.603 209.479ZM932.407 209.079V181.959H933.887V209.079H932.407ZM948.642 209.479C946.989 209.479 945.549 209.059 944.322 208.219C943.096 207.365 942.142 206.205 941.462 204.739C940.782 203.272 940.442 201.612 940.442 199.759C940.442 197.705 940.776 195.939 941.442 194.459C942.122 192.979 943.076 191.839 944.302 191.039C945.529 190.239 946.976 189.839 948.642 189.839C949.989 189.839 951.122 190.112 952.042 190.659C952.976 191.205 953.722 191.952 954.282 192.899C954.856 193.845 955.269 194.912 955.522 196.099C955.776 197.285 955.902 198.519 955.902 199.799H941.702V198.519H955.162L954.242 199.119C954.282 198.185 954.222 197.252 954.062 196.319C953.916 195.372 953.636 194.505 953.222 193.719C952.809 192.932 952.229 192.299 951.482 191.819C950.736 191.339 949.789 191.099 948.642 191.099C947.149 191.099 945.902 191.485 944.902 192.259C943.916 193.032 943.176 194.032 942.682 195.259C942.202 196.472 941.962 197.745 941.962 199.079V199.759C941.962 201.332 942.202 202.759 942.682 204.039C943.176 205.305 943.916 206.312 944.902 207.059C945.902 207.805 947.149 208.179 948.642 208.179C950.202 208.179 951.469 207.792 952.442 207.019C953.429 206.245 954.009 205.105 954.182 203.599H955.862C955.662 204.879 955.229 205.959 954.562 206.839C953.896 207.705 953.056 208.365 952.042 208.819C951.029 209.259 949.896 209.479 948.642 209.479ZM959.046 190.239H960.686L968.086 207.799H967.566L974.946 190.239H976.586L968.526 209.079H967.106L959.046 190.239ZM993.18 209.079L992.98 205.419V196.799C992.98 194.705 992.513 193.232 991.58 192.379C990.66 191.525 989.4 191.099 987.8 191.099C986.907 191.099 986.067 191.225 985.28 191.479C984.493 191.732 983.853 192.152 983.36 192.739C982.867 193.312 982.62 194.092 982.62 195.079H980.86C980.86 193.772 981.187 192.739 981.84 191.979C982.493 191.205 983.347 190.659 984.4 190.339C985.467 190.005 986.6 189.839 987.8 189.839C989.053 189.839 990.18 190.065 991.18 190.519C992.18 190.972 992.973 191.712 993.56 192.739C994.16 193.752 994.46 195.105 994.46 196.799V209.079H993.18ZM986.5 209.479C985.02 209.479 983.807 209.205 982.86 208.659C981.927 208.112 981.233 207.425 980.78 206.599C980.327 205.759 980.1 204.905 980.1 204.039C980.1 202.679 980.427 201.605 981.08 200.819C981.733 200.019 982.58 199.452 983.62 199.119C984.673 198.772 985.793 198.599 986.98 198.599C987.913 198.599 988.92 198.725 990 198.979C991.093 199.219 992.127 199.552 993.1 199.979V201.119C992.247 200.719 991.24 200.399 990.08 200.159C988.92 199.905 987.88 199.779 986.96 199.779C985.52 199.779 984.273 200.105 983.22 200.759C982.18 201.399 981.66 202.492 981.66 204.039C981.66 205.212 982.04 206.205 982.8 207.019C983.56 207.819 984.787 208.219 986.48 208.219C987.587 208.219 988.633 207.945 989.62 207.399C990.62 206.852 991.427 206.165 992.04 205.339C992.667 204.512 992.98 203.685 992.98 202.859H993.38C993.38 204.005 993.087 205.085 992.5 206.099C991.913 207.112 991.1 207.932 990.06 208.559C989.033 209.172 987.847 209.479 986.5 209.479ZM1016.35 209.079V197.959C1016.35 195.745 1015.81 194.052 1014.75 192.879C1013.68 191.692 1012.2 191.099 1010.31 191.099C1008.96 191.099 1007.81 191.465 1006.85 192.199C1005.9 192.932 1005.17 193.945 1004.67 195.239C1004.17 196.519 1003.93 197.999 1003.93 199.679H1003.11C1003.11 197.745 1003.38 196.045 1003.93 194.579C1004.47 193.099 1005.29 191.939 1006.39 191.099C1007.49 190.259 1008.89 189.839 1010.59 189.839C1012 189.839 1013.24 190.159 1014.31 190.799C1015.39 191.439 1016.23 192.365 1016.83 193.579C1017.44 194.779 1017.75 196.239 1017.75 197.959V209.079H1016.35ZM1002.45 209.079V190.239H1003.67L1003.93 195.219V209.079H1002.45ZM1030.97 209.479C1030.03 209.479 1029.21 209.292 1028.51 208.919C1027.81 208.545 1027.27 207.999 1026.89 207.279C1026.5 206.559 1026.31 205.685 1026.31 204.659V184.759H1027.71V204.659C1027.71 207.005 1028.79 208.179 1030.95 208.179C1031.57 208.179 1032.17 208.112 1032.73 207.979C1033.29 207.832 1033.91 207.632 1034.61 207.379L1034.79 208.519C1034.17 208.812 1033.55 209.045 1032.91 209.219C1032.27 209.392 1031.62 209.479 1030.97 209.479ZM1022.85 191.419V190.239H1034.51V191.419H1022.85ZM1048.93 209.079V184.819H1056.83C1059.46 184.819 1061.41 185.465 1062.69 186.759C1063.97 188.039 1064.61 189.692 1064.61 191.719C1064.61 193.759 1063.97 195.425 1062.69 196.719C1061.41 197.999 1059.46 198.639 1056.83 198.639H1050.41V209.079H1048.93ZM1063.05 209.079L1055.53 198.459H1057.25L1064.93 209.079H1063.05ZM1050.41 197.419H1056.85C1058.88 197.419 1060.42 196.892 1061.49 195.839C1062.56 194.772 1063.09 193.385 1063.09 191.679C1063.09 189.932 1062.55 188.559 1061.47 187.559C1060.4 186.559 1058.86 186.059 1056.83 186.059H1050.41V197.419ZM1078.17 209.479C1076.52 209.479 1075.08 209.059 1073.85 208.219C1072.63 207.365 1071.67 206.205 1070.99 204.739C1070.31 203.272 1069.97 201.612 1069.97 199.759C1069.97 197.705 1070.31 195.939 1070.97 194.459C1071.65 192.979 1072.61 191.839 1073.83 191.039C1075.06 190.239 1076.51 189.839 1078.17 189.839C1079.52 189.839 1080.65 190.112 1081.57 190.659C1082.51 191.205 1083.25 191.952 1083.81 192.899C1084.39 193.845 1084.8 194.912 1085.05 196.099C1085.31 197.285 1085.43 198.519 1085.43 199.799H1071.23V198.519H1084.69L1083.77 199.119C1083.81 198.185 1083.75 197.252 1083.59 196.319C1083.45 195.372 1083.17 194.505 1082.75 193.719C1082.34 192.932 1081.76 192.299 1081.01 191.819C1080.27 191.339 1079.32 191.099 1078.17 191.099C1076.68 191.099 1075.43 191.485 1074.43 192.259C1073.45 193.032 1072.71 194.032 1072.21 195.259C1071.73 196.472 1071.49 197.745 1071.49 199.079V199.759C1071.49 201.332 1071.73 202.759 1072.21 204.039C1072.71 205.305 1073.45 206.312 1074.43 207.059C1075.43 207.805 1076.68 208.179 1078.17 208.179C1079.73 208.179 1081 207.792 1081.97 207.019C1082.96 206.245 1083.54 205.105 1083.71 203.599H1085.39C1085.19 204.879 1084.76 205.959 1084.09 206.839C1083.43 207.705 1082.59 208.365 1081.57 208.819C1080.56 209.259 1079.43 209.479 1078.17 209.479ZM1098.5 209.479C1096.66 209.479 1095.16 209.212 1094.02 208.679C1092.88 208.132 1092.04 207.419 1091.48 206.539C1090.93 205.645 1090.62 204.679 1090.56 203.639H1092.16C1092.24 205.132 1092.83 206.265 1093.94 207.039C1095.04 207.799 1096.56 208.179 1098.5 208.179C1099.48 208.179 1100.4 208.012 1101.26 207.679C1102.12 207.345 1102.82 206.885 1103.36 206.299C1103.9 205.699 1104.18 205.025 1104.18 204.279C1104.18 203.332 1103.82 202.592 1103.12 202.059C1102.41 201.512 1101.28 201.045 1099.74 200.659L1096.56 199.799C1094.84 199.332 1093.52 198.659 1092.62 197.779C1091.72 196.899 1091.28 195.839 1091.28 194.599C1091.28 193.159 1091.89 192.005 1093.12 191.139C1094.34 190.272 1095.92 189.839 1097.86 189.839C1100.04 189.839 1101.75 190.252 1102.98 191.079C1104.22 191.905 1104.88 192.932 1104.96 194.159H1103.28C1103.1 193.105 1102.55 192.332 1101.62 191.839C1100.7 191.345 1099.44 191.099 1097.86 191.099C1096.24 191.099 1095 191.479 1094.12 192.239C1093.24 192.999 1092.8 193.812 1092.8 194.679C1092.8 196.412 1094.28 197.672 1097.26 198.459L1100.24 199.279C1102.02 199.759 1103.38 200.399 1104.3 201.199C1105.22 201.985 1105.68 203.012 1105.68 204.279C1105.68 205.172 1105.4 206.019 1104.84 206.819C1104.28 207.605 1103.46 208.245 1102.4 208.739C1101.33 209.232 1100.03 209.479 1098.5 209.479ZM1118.95 209.479C1117.3 209.479 1115.86 209.059 1114.63 208.219C1113.41 207.365 1112.45 206.205 1111.77 204.739C1111.09 203.272 1110.75 201.612 1110.75 199.759C1110.75 197.705 1111.09 195.939 1111.75 194.459C1112.43 192.979 1113.39 191.839 1114.61 191.039C1115.84 190.239 1117.29 189.839 1118.95 189.839C1120.3 189.839 1121.43 190.112 1122.35 190.659C1123.29 191.205 1124.03 191.952 1124.59 192.899C1125.17 193.845 1125.58 194.912 1125.83 196.099C1126.09 197.285 1126.21 198.519 1126.21 199.799H1112.01V198.519H1125.47L1124.55 199.119C1124.59 198.185 1124.53 197.252 1124.37 196.319C1124.23 195.372 1123.95 194.505 1123.53 193.719C1123.12 192.932 1122.54 192.299 1121.79 191.819C1121.05 191.339 1120.1 191.099 1118.95 191.099C1117.46 191.099 1116.21 191.485 1115.21 192.259C1114.23 193.032 1113.49 194.032 1112.99 195.259C1112.51 196.472 1112.27 197.745 1112.27 199.079V199.759C1112.27 201.332 1112.51 202.759 1112.99 204.039C1113.49 205.305 1114.23 206.312 1115.21 207.059C1116.21 207.805 1117.46 208.179 1118.95 208.179C1120.51 208.179 1121.78 207.792 1122.75 207.019C1123.74 206.245 1124.32 205.105 1124.49 203.599H1126.17C1125.97 204.879 1125.54 205.959 1124.87 206.839C1124.21 207.705 1123.37 208.365 1122.35 208.819C1121.34 209.259 1120.21 209.479 1118.95 209.479ZM1144.08 209.079L1143.88 205.419V196.799C1143.88 194.705 1143.41 193.232 1142.48 192.379C1141.56 191.525 1140.3 191.099 1138.7 191.099C1137.81 191.099 1136.97 191.225 1136.18 191.479C1135.39 191.732 1134.75 192.152 1134.26 192.739C1133.77 193.312 1133.52 194.092 1133.52 195.079H1131.76C1131.76 193.772 1132.09 192.739 1132.74 191.979C1133.39 191.205 1134.25 190.659 1135.3 190.339C1136.37 190.005 1137.5 189.839 1138.7 189.839C1139.95 189.839 1141.08 190.065 1142.08 190.519C1143.08 190.972 1143.87 191.712 1144.46 192.739C1145.06 193.752 1145.36 195.105 1145.36 196.799V209.079H1144.08ZM1137.4 209.479C1135.92 209.479 1134.71 209.205 1133.76 208.659C1132.83 208.112 1132.13 207.425 1131.68 206.599C1131.23 205.759 1131 204.905 1131 204.039C1131 202.679 1131.33 201.605 1131.98 200.819C1132.63 200.019 1133.48 199.452 1134.52 199.119C1135.57 198.772 1136.69 198.599 1137.88 198.599C1138.81 198.599 1139.82 198.725 1140.9 198.979C1141.99 199.219 1143.03 199.552 1144 199.979V201.119C1143.15 200.719 1142.14 200.399 1140.98 200.159C1139.82 199.905 1138.78 199.779 1137.86 199.779C1136.42 199.779 1135.17 200.105 1134.12 200.759C1133.08 201.399 1132.56 202.492 1132.56 204.039C1132.56 205.212 1132.94 206.205 1133.7 207.019C1134.46 207.819 1135.69 208.219 1137.38 208.219C1138.49 208.219 1139.53 207.945 1140.52 207.399C1141.52 206.852 1142.33 206.165 1142.94 205.339C1143.57 204.512 1143.88 203.685 1143.88 202.859H1144.28C1144.28 204.005 1143.99 205.085 1143.4 206.099C1142.81 207.112 1142 207.932 1140.96 208.559C1139.93 209.172 1138.75 209.479 1137.4 209.479ZM1153.34 209.079V190.239H1154.82V209.079H1153.34ZM1154.08 200.319C1154.08 198.012 1154.26 196.085 1154.62 194.539C1154.98 192.992 1155.58 191.832 1156.4 191.059C1157.23 190.272 1158.34 189.879 1159.74 189.879C1160.26 189.879 1160.74 189.919 1161.16 189.999C1161.6 190.079 1162.04 190.199 1162.48 190.359L1162.16 191.759C1161.76 191.599 1161.32 191.459 1160.82 191.339C1160.33 191.219 1159.9 191.159 1159.54 191.159C1158.32 191.159 1157.36 191.559 1156.66 192.359C1155.98 193.145 1155.5 194.232 1155.22 195.619C1154.96 196.992 1154.82 198.559 1154.82 200.319H1154.08ZM1172.59 209.479C1171.15 209.479 1169.8 209.079 1168.55 208.279C1167.3 207.479 1166.28 206.339 1165.51 204.859C1164.74 203.379 1164.35 201.625 1164.35 199.599C1164.35 197.585 1164.74 195.852 1165.51 194.399C1166.28 192.945 1167.3 191.825 1168.55 191.039C1169.8 190.239 1171.15 189.839 1172.59 189.839C1173.48 189.839 1174.3 189.965 1175.05 190.219C1175.8 190.459 1176.47 190.805 1177.07 191.259C1177.67 191.712 1178.2 192.252 1178.65 192.879C1179.1 193.492 1179.48 194.165 1179.77 194.899L1178.17 195.339C1177.72 193.979 1177 192.932 1176.01 192.199C1175.02 191.465 1173.87 191.099 1172.55 191.099C1171.42 191.099 1170.34 191.432 1169.33 192.099C1168.33 192.765 1167.52 193.732 1166.89 194.999C1166.26 196.252 1165.95 197.785 1165.95 199.599C1165.95 201.225 1166.23 202.692 1166.79 203.999C1167.35 205.292 1168.12 206.319 1169.11 207.079C1170.11 207.825 1171.26 208.199 1172.55 208.199C1174.31 208.199 1175.68 207.759 1176.67 206.879C1177.67 205.999 1178.17 204.752 1178.17 203.139H1179.77C1179.77 204.419 1179.45 205.539 1178.81 206.499C1178.18 207.445 1177.33 208.179 1176.25 208.699C1175.17 209.219 1173.95 209.479 1172.59 209.479ZM1200.49 209.079V197.959C1200.49 195.745 1199.95 194.052 1198.89 192.879C1197.82 191.692 1196.34 191.099 1194.45 191.099C1193.1 191.099 1191.95 191.465 1190.99 192.199C1190.04 192.932 1189.31 193.945 1188.81 195.239C1188.31 196.519 1188.07 197.999 1188.07 199.679H1187.25C1187.25 197.745 1187.52 196.045 1188.07 194.579C1188.61 193.099 1189.43 191.939 1190.53 191.099C1191.63 190.259 1193.03 189.839 1194.73 189.839C1196.14 189.839 1197.38 190.159 1198.45 190.799C1199.53 191.439 1200.37 192.365 1200.97 193.579C1201.58 194.779 1201.89 196.239 1201.89 197.959V209.079H1200.49ZM1186.59 209.079V181.959H1188.07V209.079H1186.59Z" fill="#252525"/>
<path d="M814.46 207L821.36 197.56L814.46 188.16H816.2L822.42 196.44L828.48 188.16H830.26L823.24 197.56L830.18 207H828.4L822.26 198.66L816.2 207H814.46Z" fill="#252525"/>
<path d="M428.46 209.079L435.36 199.639L428.46 190.239H430.2L436.42 198.519L442.48 190.239H444.26L437.24 199.639L444.18 209.079H442.4L436.26 200.739L430.2 209.079H428.46Z" fill="#252525"/>
<path d="M89 239.501H1234.5" stroke="#616161"/>
<path d="M99.32 207V182.74H106.3C108.9 182.74 110.84 183.42 112.12 184.78C113.4 186.127 114.04 187.853 114.04 189.96C114.04 192.053 113.4 193.767 112.12 195.1C110.84 196.42 108.9 197.08 106.3 197.08H100.84V207H99.32ZM100.84 195.78H106.3C108.327 195.78 109.867 195.273 110.92 194.26C111.987 193.247 112.52 191.813 112.52 189.96C112.52 188.093 111.987 186.633 110.92 185.58C109.867 184.513 108.327 183.98 106.3 183.98H100.84V195.78ZM120.415 207V188.16H121.895V207H120.415ZM121.155 198.24C121.155 195.933 121.335 194.007 121.695 192.46C122.055 190.913 122.648 189.753 123.475 188.98C124.301 188.193 125.415 187.8 126.815 187.8C127.335 187.8 127.808 187.84 128.235 187.92C128.675 188 129.115 188.12 129.555 188.28L129.235 189.68C128.835 189.52 128.388 189.38 127.895 189.26C127.401 189.14 126.975 189.08 126.615 189.08C125.388 189.08 124.428 189.48 123.735 190.28C123.055 191.067 122.575 192.153 122.295 193.54C122.028 194.913 121.895 196.48 121.895 198.24H121.155ZM139.779 207.4C138.112 207.4 136.652 207.02 135.399 206.26C134.145 205.487 133.165 204.367 132.459 202.9C131.765 201.433 131.419 199.653 131.419 197.56C131.419 195.48 131.765 193.713 132.459 192.26C133.165 190.793 134.145 189.68 135.399 188.92C136.652 188.147 138.112 187.76 139.779 187.76C141.445 187.76 142.899 188.147 144.139 188.92C145.392 189.68 146.365 190.793 147.059 192.26C147.765 193.713 148.119 195.48 148.119 197.56C148.119 199.653 147.765 201.433 147.059 202.9C146.365 204.367 145.392 205.487 144.139 206.26C142.899 207.02 141.445 207.4 139.779 207.4ZM139.779 206.12C141.339 206.12 142.619 205.76 143.619 205.04C144.619 204.307 145.359 203.293 145.839 202C146.319 200.707 146.559 199.227 146.559 197.56C146.559 195.053 146.012 193.007 144.919 191.42C143.825 189.82 142.105 189.02 139.759 189.02C138.199 189.02 136.919 189.387 135.919 190.12C134.932 190.84 134.199 191.847 133.719 193.14C133.252 194.42 133.019 195.893 133.019 197.56C133.019 200.067 133.559 202.12 134.639 203.72C135.732 205.32 137.445 206.12 139.779 206.12ZM162.213 207.4C160.867 207.4 159.66 207.073 158.593 206.42C157.54 205.753 156.707 204.813 156.093 203.6C155.48 202.387 155.173 200.953 155.173 199.3H156.113C156.113 200.807 156.407 202.067 156.993 203.08C157.593 204.093 158.36 204.853 159.293 205.36C160.227 205.867 161.213 206.12 162.253 206.12C163.4 206.12 164.467 205.787 165.453 205.12C166.44 204.44 167.233 203.46 167.833 202.18C168.447 200.887 168.753 199.333 168.753 197.52C168.753 195.707 168.447 194.173 167.833 192.92C167.233 191.653 166.44 190.687 165.453 190.02C164.467 189.353 163.387 189.02 162.213 189.02C161.187 189.02 160.207 189.28 159.273 189.8C158.34 190.307 157.58 191.073 156.993 192.1C156.407 193.113 156.113 194.387 156.113 195.92H155.173C155.173 194.253 155.48 192.813 156.093 191.6C156.707 190.373 157.547 189.427 158.613 188.76C159.68 188.093 160.893 187.76 162.253 187.76C163.693 187.76 165.027 188.153 166.253 188.94C167.493 189.713 168.487 190.833 169.233 192.3C169.993 193.753 170.373 195.493 170.373 197.52C170.373 199.547 169.993 201.3 169.233 202.78C168.487 204.26 167.493 205.4 166.253 206.2C165.013 207 163.667 207.4 162.213 207.4ZM154.633 207V179.88H156.113V202.84L155.933 207H154.633ZM177.446 207V179.88H178.926V207H177.446ZM193.681 207.4C192.028 207.4 190.588 206.98 189.361 206.14C188.135 205.287 187.181 204.127 186.501 202.66C185.821 201.193 185.481 199.533 185.481 197.68C185.481 195.627 185.815 193.86 186.481 192.38C187.161 190.9 188.115 189.76 189.341 188.96C190.568 188.16 192.015 187.76 193.681 187.76C195.028 187.76 196.161 188.033 197.081 188.58C198.015 189.127 198.761 189.873 199.321 190.82C199.895 191.767 200.308 192.833 200.561 194.02C200.815 195.207 200.941 196.44 200.941 197.72H186.741V196.44H200.201L199.281 197.04C199.321 196.107 199.261 195.173 199.101 194.24C198.955 193.293 198.675 192.427 198.261 191.64C197.848 190.853 197.268 190.22 196.521 189.74C195.775 189.26 194.828 189.02 193.681 189.02C192.188 189.02 190.941 189.407 189.941 190.18C188.955 190.953 188.215 191.953 187.721 193.18C187.241 194.393 187.001 195.667 187.001 197V197.68C187.001 199.253 187.241 200.68 187.721 201.96C188.215 203.227 188.955 204.233 189.941 204.98C190.941 205.727 192.188 206.1 193.681 206.1C195.241 206.1 196.508 205.713 197.481 204.94C198.468 204.167 199.048 203.027 199.221 201.52H200.901C200.701 202.8 200.268 203.88 199.601 204.76C198.935 205.627 198.095 206.287 197.081 206.74C196.068 207.18 194.935 207.4 193.681 207.4ZM234.905 207V195.88C234.905 193.667 234.378 191.973 233.325 190.8C232.272 189.613 230.818 189.02 228.965 189.02C226.898 189.02 225.352 189.787 224.325 191.32C223.298 192.853 222.785 194.82 222.785 197.22H221.865C221.865 195.82 222.012 194.54 222.305 193.38C222.612 192.22 223.065 191.227 223.665 190.4C224.265 189.56 225.025 188.913 225.945 188.46C226.865 187.993 227.945 187.76 229.185 187.76C230.612 187.76 231.858 188.08 232.925 188.72C234.005 189.36 234.845 190.287 235.445 191.5C236.045 192.7 236.345 194.16 236.345 195.88V207H234.905ZM207.485 207V188.16H208.705L208.885 192.54C209.445 191.06 210.285 189.893 211.405 189.04C212.525 188.187 213.932 187.76 215.625 187.76C217.038 187.76 218.278 188.08 219.345 188.72C220.425 189.36 221.265 190.287 221.865 191.5C222.478 192.7 222.785 194.16 222.785 195.88V207H221.385V195.88C221.385 193.667 220.852 191.973 219.785 190.8C218.718 189.613 217.238 189.02 215.345 189.02C213.998 189.02 212.845 189.387 211.885 190.12C210.938 190.853 210.212 191.867 209.705 193.16C209.212 194.44 208.965 195.92 208.965 197.6V207H207.485ZM260.247 207.4C258.701 207.4 257.281 207.107 255.987 206.52C254.707 205.933 253.681 205.1 252.907 204.02C252.147 202.927 251.774 201.62 251.787 200.1H253.187C253.187 201.447 253.514 202.56 254.167 203.44C254.821 204.307 255.681 204.953 256.747 205.38C257.814 205.793 258.967 206 260.207 206C261.687 206 262.941 205.747 263.967 205.24C265.007 204.72 265.794 204.06 266.327 203.26C266.874 202.447 267.147 201.6 267.147 200.72C267.147 199.4 266.754 198.34 265.967 197.54C265.194 196.727 264.107 196.113 262.707 195.7L258.947 194.64C256.787 193.933 255.174 193.14 254.107 192.26C253.041 191.38 252.507 190.127 252.507 188.5C252.507 186.713 253.167 185.247 254.487 184.1C255.821 182.953 257.754 182.38 260.287 182.38C262.501 182.38 264.247 182.887 265.527 183.9C266.821 184.9 267.574 186.173 267.787 187.72H266.307C266.094 186.413 265.474 185.427 264.447 184.76C263.421 184.08 262.034 183.74 260.287 183.74C258.301 183.74 256.774 184.2 255.707 185.12C254.641 186.04 254.107 187.207 254.107 188.62C254.107 189.74 254.441 190.633 255.107 191.3C255.787 191.953 256.861 192.513 258.327 192.98L263.027 194.38C264.707 194.833 266.081 195.553 267.147 196.54C268.214 197.527 268.747 198.92 268.747 200.72C268.747 201.827 268.427 202.893 267.787 203.92C267.147 204.933 266.194 205.767 264.927 206.42C263.674 207.073 262.114 207.4 260.247 207.4ZM282.24 207.4C280.573 207.4 279.113 207.02 277.86 206.26C276.606 205.487 275.626 204.367 274.92 202.9C274.226 201.433 273.88 199.653 273.88 197.56C273.88 195.48 274.226 193.713 274.92 192.26C275.626 190.793 276.606 189.68 277.86 188.92C279.113 188.147 280.573 187.76 282.24 187.76C283.906 187.76 285.36 188.147 286.6 188.92C287.853 189.68 288.826 190.793 289.52 192.26C290.226 193.713 290.58 195.48 290.58 197.56C290.58 199.653 290.226 201.433 289.52 202.9C288.826 204.367 287.853 205.487 286.6 206.26C285.36 207.02 283.906 207.4 282.24 207.4ZM282.24 206.12C283.8 206.12 285.08 205.76 286.08 205.04C287.08 204.307 287.82 203.293 288.3 202C288.78 200.707 289.02 199.227 289.02 197.56C289.02 195.053 288.473 193.007 287.38 191.42C286.286 189.82 284.566 189.02 282.22 189.02C280.66 189.02 279.38 189.387 278.38 190.12C277.393 190.84 276.66 191.847 276.18 193.14C275.713 194.42 275.48 195.893 275.48 197.56C275.48 200.067 276.02 202.12 277.1 203.72C278.193 205.32 279.906 206.12 282.24 206.12ZM297.094 207V179.88H298.574V207H297.094ZM303.89 188.16H305.53L312.93 205.72H312.41L319.79 188.16H321.43L313.37 207H311.95L303.89 188.16ZM327.444 182.66C327.097 182.66 326.804 182.54 326.564 182.3C326.337 182.06 326.224 181.773 326.224 181.44C326.224 181.133 326.337 180.88 326.564 180.68C326.804 180.48 327.097 180.38 327.444 180.38C327.83 180.38 328.13 180.48 328.344 180.68C328.557 180.88 328.664 181.133 328.664 181.44C328.664 181.773 328.557 182.06 328.344 182.3C328.13 182.54 327.83 182.66 327.444 182.66ZM326.704 207V188.16H328.184V207H326.704ZM351.307 207V195.88C351.307 193.667 350.774 191.973 349.707 190.8C348.64 189.613 347.16 189.02 345.267 189.02C343.92 189.02 342.767 189.387 341.807 190.12C340.86 190.853 340.134 191.867 339.627 193.16C339.134 194.44 338.887 195.92 338.887 197.6H338.067C338.067 195.667 338.34 193.967 338.887 192.5C339.434 191.02 340.254 189.86 341.347 189.02C342.454 188.18 343.854 187.76 345.547 187.76C346.96 187.76 348.2 188.08 349.267 188.72C350.347 189.36 351.187 190.287 351.787 191.5C352.4 192.7 352.707 194.16 352.707 195.88V207H351.307ZM337.407 207V188.16H338.627L338.887 193.14V207H337.407ZM366.767 216.64C365.087 216.64 363.594 216.387 362.287 215.88C360.981 215.387 359.954 214.713 359.207 213.86C358.474 213.007 358.107 212.04 358.107 210.96C358.107 209.373 358.694 208.173 359.867 207.36C361.041 206.56 362.574 206.16 364.467 206.16V207.04C362.894 207.04 361.674 207.393 360.807 208.1C359.941 208.807 359.507 209.76 359.507 210.96C359.507 212.133 360.101 213.16 361.287 214.04C362.474 214.933 364.301 215.38 366.767 215.38C368.621 215.38 370.261 215.12 371.687 214.6C373.114 214.093 374.234 213.413 375.047 212.56C375.861 211.707 376.267 210.787 376.267 209.8C376.267 209.08 375.981 208.44 375.407 207.88C374.847 207.32 373.994 207.04 372.847 207.04H364.467C363.187 207.04 362.147 206.86 361.347 206.5C360.547 206.14 359.954 205.673 359.567 205.1C359.194 204.527 359.007 203.92 359.007 203.28C359.007 202.493 359.227 201.84 359.667 201.32C360.121 200.787 360.687 200.393 361.367 200.14C362.047 199.873 362.734 199.74 363.427 199.74V200.48C363.014 200.48 362.574 200.587 362.107 200.8C361.654 201 361.267 201.307 360.947 201.72C360.627 202.133 360.467 202.66 360.467 203.3C360.467 203.993 360.741 204.587 361.287 205.08C361.847 205.573 362.907 205.82 364.467 205.82H372.847C374.394 205.82 375.601 206.2 376.467 206.96C377.347 207.72 377.787 208.673 377.787 209.82C377.787 210.913 377.354 211.98 376.487 213.02C375.621 214.073 374.367 214.94 372.727 215.62C371.087 216.3 369.101 216.64 366.767 216.64ZM367.647 201.8C366.247 201.8 365.007 201.5 363.927 200.9C362.847 200.3 362.001 199.473 361.387 198.42C360.774 197.353 360.467 196.133 360.467 194.76C360.467 193.387 360.774 192.18 361.387 191.14C362.001 190.087 362.847 189.26 363.927 188.66C365.007 188.06 366.247 187.76 367.647 187.76C369.007 187.76 370.214 188.06 371.267 188.66C372.334 189.26 373.174 190.087 373.787 191.14C374.401 192.18 374.707 193.387 374.707 194.76C374.707 196.133 374.401 197.353 373.787 198.42C373.174 199.473 372.334 200.3 371.267 200.9C370.214 201.5 369.007 201.8 367.647 201.8ZM367.607 200.64C369.314 200.64 370.674 200.087 371.687 198.98C372.714 197.86 373.227 196.453 373.227 194.76C373.227 193.08 372.714 191.707 371.687 190.64C370.674 189.56 369.327 189.02 367.647 189.02C365.914 189.02 364.534 189.56 363.507 190.64C362.494 191.707 361.987 193.08 361.987 194.76C361.987 196.453 362.494 197.86 363.507 198.98C364.534 200.087 365.901 200.64 367.607 200.64ZM373.307 190.72L372.527 190.78C372.527 189.7 372.694 188.753 373.027 187.94C373.374 187.113 373.907 186.467 374.627 186C375.347 185.533 376.281 185.3 377.427 185.3L377.187 186.92C375.947 186.92 374.987 187.227 374.307 187.84C373.641 188.453 373.307 189.413 373.307 190.72Z" fill="#252525"/>
<path d="M509.24 182.98V181.74H527.52V182.98H518.74L519.08 182.64V206H517.6V182.64L517.94 182.98H509.24ZM532.85 181.66C532.503 181.66 532.21 181.54 531.97 181.3C531.743 181.06 531.63 180.773 531.63 180.44C531.63 180.133 531.743 179.88 531.97 179.68C532.21 179.48 532.503 179.38 532.85 179.38C533.237 179.38 533.537 179.48 533.75 179.68C533.963 179.88 534.07 180.133 534.07 180.44C534.07 180.773 533.963 181.06 533.75 181.3C533.537 181.54 533.237 181.66 532.85 181.66ZM532.11 206V187.16H533.59V206H532.11ZM570.233 206V194.88C570.233 192.667 569.706 190.973 568.653 189.8C567.6 188.613 566.146 188.02 564.293 188.02C562.226 188.02 560.68 188.787 559.653 190.32C558.626 191.853 558.113 193.82 558.113 196.22H557.193C557.193 194.82 557.34 193.54 557.633 192.38C557.94 191.22 558.393 190.227 558.993 189.4C559.593 188.56 560.353 187.913 561.273 187.46C562.193 186.993 563.273 186.76 564.513 186.76C565.94 186.76 567.186 187.08 568.253 187.72C569.333 188.36 570.173 189.287 570.773 190.5C571.373 191.7 571.673 193.16 571.673 194.88V206H570.233ZM542.813 206V187.16H544.033L544.213 191.54C544.773 190.06 545.613 188.893 546.733 188.04C547.853 187.187 549.26 186.76 550.953 186.76C552.366 186.76 553.606 187.08 554.673 187.72C555.753 188.36 556.593 189.287 557.193 190.5C557.806 191.7 558.113 193.16 558.113 194.88V206H556.713V194.88C556.713 192.667 556.18 190.973 555.113 189.8C554.046 188.613 552.566 188.02 550.673 188.02C549.326 188.02 548.173 188.387 547.213 189.12C546.266 189.853 545.54 190.867 545.033 192.16C544.54 193.44 544.293 194.92 544.293 196.6V206H542.813ZM585.728 206.4C584.075 206.4 582.635 205.98 581.408 205.14C580.181 204.287 579.228 203.127 578.548 201.66C577.868 200.193 577.528 198.533 577.528 196.68C577.528 194.627 577.861 192.86 578.528 191.38C579.208 189.9 580.161 188.76 581.388 187.96C582.615 187.16 584.061 186.76 585.728 186.76C587.075 186.76 588.208 187.033 589.128 187.58C590.061 188.127 590.808 188.873 591.368 189.82C591.941 190.767 592.355 191.833 592.608 193.02C592.861 194.207 592.988 195.44 592.988 196.72H578.788V195.44H592.248L591.328 196.04C591.368 195.107 591.308 194.173 591.148 193.24C591.001 192.293 590.721 191.427 590.308 190.64C589.895 189.853 589.315 189.22 588.568 188.74C587.821 188.26 586.875 188.02 585.728 188.02C584.235 188.02 582.988 188.407 581.988 189.18C581.001 189.953 580.261 190.953 579.768 192.18C579.288 193.393 579.048 194.667 579.048 196V196.68C579.048 198.253 579.288 199.68 579.768 200.96C580.261 202.227 581.001 203.233 581.988 203.98C582.988 204.727 584.235 205.1 585.728 205.1C587.288 205.1 588.555 204.713 589.528 203.94C590.515 203.167 591.095 202.027 591.268 200.52H592.948C592.748 201.8 592.315 202.88 591.648 203.76C590.981 204.627 590.141 205.287 589.128 205.74C588.115 206.18 586.981 206.4 585.728 206.4ZM608.399 206V181.74H609.879V206H608.399ZM632.494 206V194.88C632.494 192.667 631.961 190.973 630.894 189.8C629.828 188.613 628.348 188.02 626.454 188.02C625.108 188.02 623.954 188.387 622.994 189.12C622.048 189.853 621.321 190.867 620.814 192.16C620.321 193.44 620.074 194.92 620.074 196.6H619.254C619.254 194.667 619.528 192.967 620.074 191.5C620.621 190.02 621.441 188.86 622.534 188.02C623.641 187.18 625.041 186.76 626.734 186.76C628.148 186.76 629.388 187.08 630.454 187.72C631.534 188.36 632.374 189.287 632.974 190.5C633.588 191.7 633.894 193.16 633.894 194.88V206H632.494ZM618.594 206V187.16H619.814L620.074 192.14V206H618.594ZM638.515 187.16H640.155L647.555 204.72H647.035L654.415 187.16H656.055L647.995 206H646.575L638.515 187.16ZM667.369 206.4C665.715 206.4 664.275 205.98 663.049 205.14C661.822 204.287 660.869 203.127 660.189 201.66C659.509 200.193 659.169 198.533 659.169 196.68C659.169 194.627 659.502 192.86 660.169 191.38C660.849 189.9 661.802 188.76 663.029 187.96C664.255 187.16 665.702 186.76 667.369 186.76C668.715 186.76 669.849 187.033 670.769 187.58C671.702 188.127 672.449 188.873 673.009 189.82C673.582 190.767 673.995 191.833 674.249 193.02C674.502 194.207 674.629 195.44 674.629 196.72H660.429V195.44H673.889L672.969 196.04C673.009 195.107 672.949 194.173 672.789 193.24C672.642 192.293 672.362 191.427 671.949 190.64C671.535 189.853 670.955 189.22 670.209 188.74C669.462 188.26 668.515 188.02 667.369 188.02C665.875 188.02 664.629 188.407 663.629 189.18C662.642 189.953 661.902 190.953 661.409 192.18C660.929 193.393 660.689 194.667 660.689 196V196.68C660.689 198.253 660.929 199.68 661.409 200.96C661.902 202.227 662.642 203.233 663.629 203.98C664.629 204.727 665.875 205.1 667.369 205.1C668.929 205.1 670.195 204.713 671.169 203.94C672.155 203.167 672.735 202.027 672.909 200.52H674.589C674.389 201.8 673.955 202.88 673.289 203.76C672.622 204.627 671.782 205.287 670.769 205.74C669.755 206.18 668.622 206.4 667.369 206.4ZM687.693 206.4C685.853 206.4 684.359 206.133 683.213 205.6C682.079 205.053 681.233 204.34 680.673 203.46C680.126 202.567 679.819 201.6 679.752 200.56H681.353C681.433 202.053 682.026 203.187 683.133 203.96C684.239 204.72 685.759 205.1 687.693 205.1C688.679 205.1 689.599 204.933 690.453 204.6C691.319 204.267 692.019 203.807 692.553 203.22C693.099 202.62 693.373 201.947 693.373 201.2C693.373 200.253 693.019 199.513 692.313 198.98C691.606 198.433 690.479 197.967 688.933 197.58L685.753 196.72C684.033 196.253 682.719 195.58 681.812 194.7C680.919 193.82 680.473 192.76 680.473 191.52C680.473 190.08 681.086 188.927 682.313 188.06C683.539 187.193 685.119 186.76 687.053 186.76C689.239 186.76 690.946 187.173 692.173 188C693.413 188.827 694.073 189.853 694.153 191.08H692.473C692.299 190.027 691.746 189.253 690.813 188.76C689.893 188.267 688.639 188.02 687.053 188.02C685.439 188.02 684.193 188.4 683.313 189.16C682.433 189.92 681.993 190.733 681.993 191.6C681.993 193.333 683.479 194.593 686.453 195.38L689.433 196.2C691.219 196.68 692.573 197.32 693.493 198.12C694.413 198.907 694.873 199.933 694.873 201.2C694.873 202.093 694.593 202.94 694.033 203.74C693.473 204.527 692.659 205.167 691.593 205.66C690.526 206.153 689.226 206.4 687.693 206.4ZM707.31 206.4C706.377 206.4 705.557 206.213 704.85 205.84C704.157 205.467 703.617 204.92 703.23 204.2C702.843 203.48 702.65 202.607 702.65 201.58V181.68H704.05V201.58C704.05 203.927 705.13 205.1 707.29 205.1C707.917 205.1 708.51 205.033 709.07 204.9C709.63 204.753 710.257 204.553 710.95 204.3L711.13 205.44C710.517 205.733 709.89 205.967 709.25 206.14C708.61 206.313 707.963 206.4 707.31 206.4ZM699.19 188.34V187.16H710.85V188.34H699.19ZM722.447 206.4C720.794 206.4 719.354 205.98 718.127 205.14C716.9 204.287 715.947 203.127 715.267 201.66C714.587 200.193 714.247 198.533 714.247 196.68C714.247 194.627 714.58 192.86 715.247 191.38C715.927 189.9 716.88 188.76 718.107 187.96C719.334 187.16 720.78 186.76 722.447 186.76C723.794 186.76 724.927 187.033 725.847 187.58C726.78 188.127 727.527 188.873 728.087 189.82C728.66 190.767 729.074 191.833 729.327 193.02C729.58 194.207 729.707 195.44 729.707 196.72H715.507V195.44H728.967L728.047 196.04C728.087 195.107 728.027 194.173 727.867 193.24C727.72 192.293 727.44 191.427 727.027 190.64C726.614 189.853 726.034 189.22 725.287 188.74C724.54 188.26 723.594 188.02 722.447 188.02C720.954 188.02 719.707 188.407 718.707 189.18C717.72 189.953 716.98 190.953 716.487 192.18C716.007 193.393 715.767 194.667 715.767 196V196.68C715.767 198.253 716.007 199.68 716.487 200.96C716.98 202.227 717.72 203.233 718.707 203.98C719.707 204.727 720.954 205.1 722.447 205.1C724.007 205.1 725.274 204.713 726.247 203.94C727.234 203.167 727.814 202.027 727.987 200.52H729.667C729.467 201.8 729.034 202.88 728.367 203.76C727.7 204.627 726.86 205.287 725.847 205.74C724.834 206.18 723.7 206.4 722.447 206.4ZM742.771 206.4C741.304 206.4 739.944 206 738.691 205.2C737.451 204.4 736.451 203.26 735.691 201.78C734.944 200.3 734.571 198.547 734.571 196.52C734.571 194.493 734.944 192.753 735.691 191.3C736.451 189.833 737.444 188.713 738.671 187.94C739.911 187.153 741.251 186.76 742.691 186.76C744.051 186.76 745.264 187.093 746.331 187.76C747.397 188.427 748.237 189.373 748.851 190.6C749.464 191.813 749.771 193.253 749.771 194.92H748.871C748.871 193.387 748.577 192.113 747.991 191.1C747.404 190.073 746.644 189.307 745.711 188.8C744.777 188.28 743.784 188.02 742.731 188.02C741.597 188.02 740.531 188.353 739.531 189.02C738.531 189.687 737.717 190.653 737.091 191.92C736.477 193.173 736.171 194.707 736.171 196.52C736.171 198.333 736.477 199.887 737.091 201.18C737.704 202.46 738.511 203.44 739.511 204.12C740.524 204.787 741.611 205.12 742.771 205.12C743.757 205.12 744.717 204.867 745.651 204.36C746.584 203.853 747.351 203.093 747.951 202.08C748.564 201.067 748.871 199.807 748.871 198.3H749.771C749.771 199.953 749.464 201.387 748.851 202.6C748.251 203.813 747.424 204.753 746.371 205.42C745.317 206.073 744.117 206.4 742.771 206.4ZM749.011 206L748.871 201.84V178.88H750.311V206H749.011Z" fill="#252525"/>
<path d="M2.304 66.784H5.952L19.344 108.16H18.576L31.968 68.704H34.08L47.28 108.256H46.704L60.096 66.784H63.648L48.864 112H45.504L32.688 75.04H33.264L20.448 112H17.184L2.304 66.784ZM110.105 112V85.312C110.105 80 108.825 75.936 106.265 73.12C103.705 70.272 100.153 68.848 95.6093 68.848C92.3773 68.848 89.6093 69.728 87.3053 71.488C85.0333 73.248 83.2893 75.68 82.0733 78.784C80.8893 81.856 80.2973 85.408 80.2973 89.44H78.3293C78.3293 84.8 78.9853 80.72 80.2973 77.2C81.6093 73.648 83.5773 70.864 86.2013 68.848C88.8573 66.832 92.2173 65.824 96.2812 65.824C99.6733 65.824 102.649 66.592 105.209 68.128C107.801 69.664 109.817 71.888 111.257 74.8C112.729 77.68 113.465 81.184 113.465 85.312V112H110.105ZM76.7453 112V46.912H80.2973V112H76.7453ZM134.49 53.584C133.658 53.584 132.954 53.296 132.378 52.72C131.834 52.144 131.562 51.456 131.562 50.656C131.562 49.92 131.834 49.312 132.378 48.832C132.954 48.352 133.658 48.112 134.49 48.112C135.418 48.112 136.138 48.352 136.65 48.832C137.162 49.312 137.418 49.92 137.418 50.656C137.418 51.456 137.162 52.144 136.65 52.72C136.138 53.296 135.418 53.584 134.49 53.584ZM132.714 112V66.784H136.266V112H132.714ZM158.402 112V46.912H161.954V112H158.402ZM197.366 112.96C193.398 112.96 189.942 111.952 186.998 109.936C184.054 107.888 181.766 105.104 180.134 101.584C178.502 98.064 177.686 94.08 177.686 89.632C177.686 84.704 178.486 80.464 180.086 76.912C181.718 73.36 184.006 70.624 186.95 68.704C189.894 66.784 193.366 65.824 197.366 65.824C200.598 65.824 203.318 66.48 205.526 67.792C207.766 69.104 209.558 70.896 210.902 73.168C212.278 75.44 213.27 78 213.878 80.848C214.486 83.696 214.79 86.656 214.79 89.728H180.71V86.656H213.014L210.806 88.096C210.902 85.856 210.758 83.616 210.374 81.376C210.022 79.104 209.35 77.024 208.358 75.136C207.366 73.248 205.974 71.728 204.182 70.576C202.39 69.424 200.118 68.848 197.366 68.848C193.782 68.848 190.79 69.776 188.39 71.632C186.022 73.488 184.246 75.888 183.062 78.832C181.91 81.744 181.334 84.8 181.334 88V89.632C181.334 93.408 181.91 96.832 183.062 99.904C184.246 102.944 186.022 105.36 188.39 107.152C190.79 108.944 193.782 109.84 197.366 109.84C201.11 109.84 204.15 108.912 206.486 107.056C208.854 105.2 210.246 102.464 210.662 98.848H214.694C214.214 101.92 213.174 104.512 211.574 106.624C209.974 108.704 207.958 110.288 205.526 111.376C203.094 112.432 200.374 112.96 197.366 112.96ZM266.225 44.848L268.769 46.336C265.153 49.92 262.113 53.792 259.649 57.952C257.217 62.08 255.377 66.336 254.129 70.72C252.881 75.072 252.257 79.376 252.257 83.632C252.257 90.032 253.649 96.512 256.433 103.072C259.249 109.6 263.361 115.536 268.769 120.88L266.225 122.56C260.625 117.216 256.241 111.12 253.073 104.272C249.905 97.392 248.321 90.512 248.321 83.632C248.321 76.656 249.905 69.776 253.073 62.992C256.241 56.176 260.625 50.128 266.225 44.848ZM304.646 53.584C303.814 53.584 303.11 53.296 302.534 52.72C301.99 52.144 301.718 51.456 301.718 50.656C301.718 49.92 301.99 49.312 302.534 48.832C303.11 48.352 303.814 48.112 304.646 48.112C305.574 48.112 306.294 48.352 306.806 48.832C307.318 49.312 307.574 49.92 307.574 50.656C307.574 51.456 307.318 52.144 306.806 52.72C306.294 53.296 305.574 53.584 304.646 53.584ZM302.87 112V66.784H306.422V112H302.87ZM361.918 112V85.312C361.918 80 360.638 75.936 358.078 73.12C355.518 70.272 351.966 68.848 347.422 68.848C344.19 68.848 341.422 69.728 339.118 71.488C336.846 73.248 335.102 75.68 333.886 78.784C332.702 81.856 332.11 85.408 332.11 89.44H330.142C330.142 84.8 330.798 80.72 332.11 77.2C333.422 73.648 335.39 70.864 338.014 68.848C340.67 66.832 344.03 65.824 348.094 65.824C351.486 65.824 354.462 66.592 357.022 68.128C359.614 69.664 361.63 71.888 363.07 74.8C364.542 77.68 365.278 81.184 365.278 85.312V112H361.918ZM328.558 112V66.784H331.486L332.11 78.736V112H328.558ZM397.007 112.96C394.767 112.96 392.799 112.512 391.103 111.616C389.439 110.72 388.143 109.408 387.215 107.68C386.287 105.952 385.823 103.856 385.823 101.392V53.632H389.183V101.392C389.183 107.024 391.775 109.84 396.959 109.84C398.463 109.84 399.887 109.68 401.231 109.36C402.575 109.008 404.079 108.528 405.743 107.92L406.175 110.656C404.703 111.36 403.199 111.92 401.663 112.336C400.127 112.752 398.575 112.96 397.007 112.96ZM377.519 69.616V66.784H405.503V69.616H377.519ZM433.335 112.96C429.367 112.96 425.911 111.952 422.967 109.936C420.023 107.888 417.735 105.104 416.103 101.584C414.471 98.064 413.655 94.08 413.655 89.632C413.655 84.704 414.455 80.464 416.055 76.912C417.687 73.36 419.975 70.624 422.919 68.704C425.863 66.784 429.335 65.824 433.335 65.824C436.567 65.824 439.287 66.48 441.495 67.792C443.735 69.104 445.527 70.896 446.871 73.168C448.247 75.44 449.239 78 449.847 80.848C450.455 83.696 450.759 86.656 450.759 89.728H416.679V86.656H448.983L446.775 88.096C446.871 85.856 446.727 83.616 446.343 81.376C445.991 79.104 445.319 77.024 444.327 75.136C443.335 73.248 441.943 71.728 440.151 70.576C438.359 69.424 436.087 68.848 433.335 68.848C429.751 68.848 426.759 69.776 424.359 71.632C421.991 73.488 420.215 75.888 419.031 78.832C417.879 81.744 417.303 84.8 417.303 88V89.632C417.303 93.408 417.879 96.832 419.031 99.904C420.215 102.944 421.991 105.36 424.359 107.152C426.759 108.944 429.751 109.84 433.335 109.84C437.079 109.84 440.119 108.912 442.455 107.056C444.823 105.2 446.215 102.464 446.631 98.848H450.663C450.183 101.92 449.143 104.512 447.543 106.624C445.943 108.704 443.927 110.288 441.495 111.376C439.063 112.432 436.343 112.96 433.335 112.96ZM466.464 112V66.784H470.016V112H466.464ZM468.24 90.976C468.24 85.44 468.672 80.816 469.536 77.104C470.4 73.392 471.824 70.608 473.808 68.752C475.792 66.864 478.464 65.92 481.824 65.92C483.072 65.92 484.208 66.016 485.232 66.208C486.288 66.4 487.344 66.688 488.4 67.072L487.632 70.432C486.672 70.048 485.6 69.712 484.416 69.424C483.232 69.136 482.208 68.992 481.344 68.992C478.4 68.992 476.096 69.952 474.432 71.872C472.8 73.76 471.648 76.368 470.976 79.696C470.336 82.992 470.016 86.752 470.016 90.976H468.24ZM512.554 112.96C508.586 112.96 505.13 111.952 502.186 109.936C499.242 107.888 496.954 105.104 495.322 101.584C493.69 98.064 492.874 94.08 492.874 89.632C492.874 84.704 493.674 80.464 495.274 76.912C496.906 73.36 499.194 70.624 502.138 68.704C505.082 66.784 508.554 65.824 512.554 65.824C515.786 65.824 518.506 66.48 520.714 67.792C522.954 69.104 524.746 70.896 526.09 73.168C527.466 75.44 528.458 78 529.066 80.848C529.674 83.696 529.978 86.656 529.978 89.728H495.898V86.656H528.202L525.994 88.096C526.09 85.856 525.946 83.616 525.562 81.376C525.21 79.104 524.538 77.024 523.546 75.136C522.554 73.248 521.162 71.728 519.37 70.576C517.578 69.424 515.306 68.848 512.554 68.848C508.97 68.848 505.978 69.776 503.578 71.632C501.21 73.488 499.434 75.888 498.25 78.832C497.098 81.744 496.522 84.8 496.522 88V89.632C496.522 93.408 497.098 96.832 498.25 99.904C499.434 102.944 501.21 105.36 503.578 107.152C505.978 108.944 508.97 109.84 512.554 109.84C516.298 109.84 519.338 108.912 521.674 107.056C524.042 105.2 525.434 102.464 525.85 98.848H529.882C529.402 101.92 528.362 104.512 526.762 106.624C525.162 108.704 523.146 110.288 520.714 111.376C518.282 112.432 515.562 112.96 512.554 112.96ZM561.331 112.96C556.915 112.96 553.331 112.32 550.579 111.04C547.859 109.728 545.827 108.016 544.483 105.904C543.171 103.76 542.435 101.44 542.275 98.944H546.115C546.307 102.528 547.731 105.248 550.387 107.104C553.043 108.928 556.691 109.84 561.331 109.84C563.699 109.84 565.907 109.44 567.955 108.64C570.035 107.84 571.715 106.736 572.995 105.328C574.307 103.888 574.963 102.272 574.963 100.48C574.963 98.208 574.115 96.432 572.419 95.152C570.723 93.84 568.019 92.72 564.307 91.792L556.675 89.728C552.547 88.608 549.395 86.992 547.219 84.88C545.075 82.768 544.003 80.224 544.003 77.248C544.003 73.792 545.475 71.024 548.419 68.944C551.363 66.864 555.155 65.824 559.795 65.824C565.043 65.824 569.139 66.816 572.083 68.8C575.059 70.784 576.643 73.248 576.835 76.192H572.803C572.387 73.664 571.059 71.808 568.819 70.624C566.611 69.44 563.603 68.848 559.795 68.848C555.923 68.848 552.931 69.76 550.819 71.584C548.707 73.408 547.651 75.36 547.651 77.44C547.651 81.6 551.219 84.624 558.355 86.512L565.507 88.48C569.795 89.632 573.043 91.168 575.251 93.088C577.459 94.976 578.563 97.44 578.563 100.48C578.563 102.624 577.891 104.656 576.547 106.576C575.203 108.464 573.251 110 570.691 111.184C568.131 112.368 565.011 112.96 561.331 112.96ZM608.413 112.96C606.173 112.96 604.205 112.512 602.509 111.616C600.845 110.72 599.549 109.408 598.621 107.68C597.693 105.952 597.229 103.856 597.229 101.392V53.632H600.589V101.392C600.589 107.024 603.181 109.84 608.365 109.84C609.869 109.84 611.293 109.68 612.637 109.36C613.981 109.008 615.485 108.528 617.149 107.92L617.581 110.656C616.109 111.36 614.605 111.92 613.069 112.336C611.533 112.752 609.981 112.96 608.413 112.96ZM588.925 69.616V66.784H616.909V69.616H588.925ZM645.959 122.56L643.367 120.88C648.807 115.536 652.935 109.6 655.751 103.072C658.567 96.512 659.975 90.032 659.975 83.632C659.975 79.376 659.335 75.072 658.055 70.72C656.807 66.336 654.951 62.08 652.487 57.952C650.023 53.792 646.983 49.92 643.367 46.336L645.959 44.848C651.527 50.128 655.911 56.176 659.111 62.992C662.311 69.776 663.911 76.656 663.911 83.632C663.911 88.208 663.191 92.816 661.751 97.456C660.311 102.096 658.247 106.56 655.559 110.848C652.871 115.104 649.671 119.008 645.959 122.56ZM698.012 104.992C698.012 104.16 698.332 103.408 698.972 102.736C699.612 102.032 700.38 101.68 701.276 101.68C702.172 101.68 702.956 102.032 703.628 102.736C704.3 103.408 704.636 104.16 704.636 104.992C704.636 105.824 704.3 106.56 703.628 107.2C702.956 107.808 702.172 108.112 701.276 108.112C700.38 108.112 699.612 107.808 698.972 107.2C698.332 106.56 698.012 105.824 698.012 104.992ZM698.012 74.848C698.012 74.016 698.332 73.264 698.972 72.592C699.612 71.888 700.38 71.536 701.276 71.536C702.172 71.536 702.956 71.888 703.628 72.592C704.3 73.264 704.636 74.016 704.636 74.848C704.636 75.68 704.3 76.416 703.628 77.056C702.956 77.664 702.172 77.968 701.276 77.968C700.38 77.968 699.612 77.664 698.972 77.056C698.332 76.416 698.012 75.68 698.012 74.848Z" fill="#252525"/>
</svg>
