<svg width="1360" height="524" viewBox="0 0 1360 524" fill="none" xmlns="http://www.w3.org/2000/svg">
<path d="M335.333 202.111C335.333 183.279 335.843 170.199 336.863 162.87C336.863 122.517 337.42 81.838 338.533 40.8349C338.255 34.9906 338.116 29.0998 338.116 23.1627V18.5707C337.744 15.695 337.559 13.1439 337.559 10.9174C337.559 8.69103 337.791 7.25314 338.255 6.60377C358.107 7.80974 375.501 8.41273 390.436 8.41273C405.372 8.41273 415.623 8.13443 421.189 7.57782C421.374 7.85613 421.513 8.64465 421.606 9.94339H420.632V60.316L421.606 173.585C421.606 174.42 421.745 175.116 422.024 175.672V175.95C422.302 176.507 422.441 177.11 422.441 177.759L423.554 218.252C423.09 219.273 422.256 220.061 421.05 220.618H416.318L338.394 221.87C337.466 221.406 336.26 220.711 334.776 219.783L334.915 217.417L335.333 202.111Z" fill="white"/>
<path d="M975.034 504.693C975.034 495.452 975.284 489.033 975.785 485.436C975.785 465.633 976.058 445.671 976.604 425.549C976.468 422.681 976.399 419.79 976.399 416.876V414.623C976.217 413.211 976.126 411.96 976.126 410.867C976.126 409.774 976.24 409.069 976.468 408.75C986.21 409.342 994.746 409.638 1002.08 409.638C1009.4 409.638 1014.44 409.501 1017.17 409.228C1017.26 409.365 1017.33 409.752 1017.37 410.389H1016.89V435.109L1017.37 490.694C1017.37 491.104 1017.44 491.446 1017.58 491.719V491.855C1017.71 492.128 1017.78 492.424 1017.78 492.743L1018.33 512.615C1018.1 513.115 1017.69 513.502 1017.1 513.775H1014.78L976.536 514.39C976.081 514.162 975.489 513.821 974.76 513.366L974.829 512.205L975.034 504.693Z" fill="white"/>
<path d="M456.062 162.188C457.062 152.688 458.729 145.542 461.062 140.75C465.521 131.5 472.167 124.938 481 121.062C488.875 117.604 497.438 115.875 506.688 115.875C522.188 115.875 533.5 120.125 540.625 128.625C544.917 133.667 547.396 139.938 548.062 147.438L548.625 153.312C547.917 153.979 543.438 154.312 535.188 154.312L525.25 154.188H524.438L519 154.062L517.5 154.125H516.25C515.083 154.125 514.188 152.417 513.562 149C512.979 145.583 512.062 143.333 510.812 142.25C509.604 141.125 508.188 140.562 506.562 140.562C504.938 140.562 503.5 140.854 502.25 141.438C501.042 142.021 500.042 142.729 499.25 143.562C498.458 144.354 497.792 145.5 497.25 147C496.25 149.583 495.646 152.333 495.438 155.25C495.229 158.125 495.125 161.354 495.125 164.938V166.438L494.875 172.75C494.875 184.25 498.125 190.125 504.625 190.375C506.292 190.375 507.458 190.083 508.125 189.5C509.917 187.917 511.479 184.729 512.812 179.938C513.104 178.938 513.458 178.125 513.875 177.5H516.25L519.125 177.562H529.25L532.312 177.5L538.25 177.562H541.875L545.562 177.625H548.062C548.562 177.667 548.917 178.104 549.125 178.938L548.938 181C548.562 185.917 547.417 190.375 545.5 194.375C541.958 201.708 536.375 207.167 528.75 210.75C521.167 214.292 512.833 216.062 503.75 216.062C487.875 216.062 475.958 211.375 468 202C460.042 192.625 456.062 179.354 456.062 162.188ZM585.188 118L605.25 117.812C609.5 117.812 613.354 117.896 616.812 118.062C626.104 118.312 633.167 120.5 638 124.625C642.875 128.75 645.312 134.562 645.312 142.062C645.312 147.271 643.792 151.729 640.75 155.438C637.708 159.104 633.271 162.333 627.438 165.125C636.688 168.042 642.292 175.125 644.25 186.375C644.708 188.833 645.062 191.646 645.312 194.812C645.604 197.979 645.833 200.104 646 201.188L646.625 204.375C647.292 208.125 647.875 210.833 648.375 212.5L648.125 212.688C641.042 213.146 634.562 213.375 628.688 213.375C622.854 213.375 617.688 213.271 613.188 213.062H612.812C611.521 213.062 610.146 206.917 608.688 194.625L608.375 191.938C608.208 187.354 607.396 184.271 605.938 182.688C604.521 181.104 602.042 180.312 598.5 180.312L597.688 180.375H594.375V199.375L594.438 201.375V212.812C594.312 213.229 594 213.479 593.5 213.562C588.917 213.729 582.438 213.812 574.062 213.812C565.729 213.812 560.229 213.833 557.562 213.875L557.188 213.75L557.062 213.812C556.979 213.812 556.854 213.75 556.688 213.625L556.812 208L556.75 206.125L557 180.188V175.625L557.062 170.938L557.125 154.75L557.188 152.625L557 138.438C557 138.438 557.083 131.792 557.25 118.5C557.25 118.167 558.438 118 560.812 118L564.812 118.062H568.625L576.562 118.125L585.188 118ZM648.75 212.312L648.438 212.5V212.375C648.438 212.333 648.542 212.312 648.75 212.312ZM648.438 212.5V212.562C648.396 212.562 648.375 212.542 648.375 212.5H648.438ZM608.312 138.375C605.812 137.292 602.479 136.75 598.312 136.75H594.688C594.229 137.417 594 140.938 594 147.312C594 153.646 594.104 157.896 594.312 160.062C607.354 159.771 613.875 155.271 613.875 146.562C613.875 142.854 612.021 140.125 608.312 138.375ZM655 134.625L654.688 118.188C654.729 118.188 654.875 118.25 655.125 118.375C686.792 117.833 710.646 117.542 726.688 117.5C726.854 117.583 726.979 117.708 727.062 117.875V135.5C727.062 137.208 727.021 138.604 726.938 139.688C726.729 140.354 725.5 140.688 723.25 140.688H722.812C712.729 140.688 702.229 140.521 691.312 140.188C691.312 140.562 691.25 141.229 691.125 142.188C691.042 143.146 690.979 143.833 690.938 144.25L690.625 146.625C690.417 148.208 690.271 150.958 690.188 154.875L709.562 154.438C712.896 154.354 715.312 154.312 716.812 154.312H717.812C720.354 154.312 722.021 154.396 722.812 154.562C723.604 154.688 724 155.104 724 155.812L723.938 156.312V157.812L724.25 173.875L724.188 173.938V173.875C711.521 174.5 701.396 174.812 693.812 174.812H690.875V189.938L724.812 188.875C726.688 188.875 727.875 189.146 728.375 189.688C728.333 190.771 728.312 192.312 728.312 194.312L728.75 211.312C728.75 212.354 728.292 212.958 727.375 213.125L706.625 212.938C702.542 212.938 694.417 213.083 682.25 213.375L672 213.625C664.75 213.875 659.375 214 655.875 214L655.688 213.875H655.75C655.333 213.458 654.938 213.062 654.562 212.688V210.5L654.938 143.688L655 134.625ZM835.562 212.688C835.521 213.229 834.375 213.5 832.125 213.5H826.375L822.5 213.562H818.688L812.625 213.625C806.583 213.625 801.562 213.479 797.562 213.188C797.438 213.146 797.292 212.896 797.125 212.438L796.812 211.125C796.438 206.833 795.458 202.688 793.875 198.688L767.125 198.938C766.958 199.646 766.417 201.75 765.5 205.25C764.583 208.75 763.896 211.396 763.438 213.188C763.021 213.604 761.042 213.812 757.5 213.812L755.938 213.75H752.312L736.062 214.125H734.188L732.438 214.188H728.062C727.771 213.896 727.458 213.521 727.125 213.062C731.292 198.646 736.938 180.771 744.062 159.438L745.5 155H745.438L747.125 149.812C747.667 148.146 749.208 143.521 751.75 135.938C754.333 128.354 755.938 123.458 756.562 121.25C757.229 119.042 757.625 117.896 757.75 117.812H768.125L790.312 117.5L796.312 117.812L801.25 117.5C803.75 117.5 805 118 805 119C809.167 130.625 814.729 147.354 821.688 169.188C828.646 191.021 832.562 203.292 833.438 206L834.312 209.125C834.604 210.25 835.021 211.438 835.562 212.688ZM773.688 178.562L776.25 178.625L791.188 178.562C790.562 173.604 790.083 169.958 789.75 167.625L787.375 156.938C784.875 145.896 783.583 140.271 783.5 140.062C783.417 139.854 783.333 139.667 783.25 139.5C783.208 139.292 783.167 139.167 783.125 139.125C783.083 139.042 783.021 138.917 782.938 138.75C782.896 138.583 782.833 138.479 782.75 138.438C782.708 138.354 782.646 138.25 782.562 138.125C782.271 137.625 781.667 137.188 780.75 136.812C779.625 137.062 776.271 149.604 770.688 174.438L770 178.562H773.688ZM908.438 141.062C908.438 142.438 908.292 143.125 908 143.125C908 143.125 900.458 143.062 885.375 142.938C885.292 146.979 885.25 153.292 885.25 161.875C885.25 170.458 885.271 176.417 885.312 179.75L885.562 212.875C885.354 213.458 884.938 213.771 884.312 213.812L871.125 213.625L871.062 213.688L866.938 213.625H855.5C852.417 213.625 850.104 213.646 848.562 213.688L847.5 212.75C847.458 212.708 847.188 212.375 846.688 211.75C846.688 208.083 846.833 199.938 847.125 187.312L847.812 154.062L847.688 152.5C847.396 148.375 847.104 145.938 846.812 145.188C846.562 144.396 846.042 143.979 845.25 143.938C844.458 143.854 843.875 143.812 843.5 143.812L841 143.938L825.5 143.688C824.958 142.604 824.688 140.167 824.688 136.375L824.812 130.875V129.188C824.771 122.521 824.708 118.958 824.625 118.5C824.708 118.5 824.875 118.542 825.125 118.625L904.688 117.938C906.312 117.938 907.333 118.062 907.75 118.312C908.167 118.521 908.375 118.938 908.375 119.562V136.062L908.438 141.062ZM914.375 134.625L914.062 118.188C914.104 118.188 914.25 118.25 914.5 118.375C946.167 117.833 970.021 117.542 986.062 117.5C986.229 117.583 986.354 117.708 986.438 117.875V135.5C986.438 137.208 986.396 138.604 986.312 139.688C986.104 140.354 984.875 140.688 982.625 140.688H982.188C972.104 140.688 961.604 140.521 950.688 140.188C950.688 140.562 950.625 141.229 950.5 142.188C950.417 143.146 950.354 143.833 950.312 144.25L950 146.625C949.792 148.208 949.646 150.958 949.562 154.875L968.938 154.438C972.271 154.354 974.688 154.312 976.188 154.312H977.188C979.729 154.312 981.396 154.396 982.188 154.562C982.979 154.688 983.375 155.104 983.375 155.812L983.312 156.312V157.812L983.625 173.875L983.562 173.938V173.875C970.896 174.5 960.771 174.812 953.188 174.812H950.25V189.938L984.188 188.875C986.062 188.875 987.25 189.146 987.75 189.688C987.708 190.771 987.688 192.312 987.688 194.312L988.125 211.312C988.125 212.354 987.667 212.958 986.75 213.125L966 212.938C961.917 212.938 953.792 213.083 941.625 213.375L931.375 213.625C924.125 213.875 918.75 214 915.25 214L915.062 213.875H915.125C914.708 213.458 914.312 213.062 913.938 212.688V210.5L914.312 143.688L914.375 134.625Z" fill="white"/>
<path d="M277.212 270.102C277.212 272.096 277 273.093 276.577 273.093C276.577 273.093 265.637 273.003 243.758 272.821C243.637 278.684 243.577 287.841 243.577 300.291C243.577 312.742 243.607 321.385 243.668 326.22L244.03 374.269C243.728 375.115 243.124 375.569 242.217 375.629L223.088 375.357L222.997 375.448L217.014 375.357H200.423C195.951 375.357 192.596 375.387 190.36 375.448L188.819 374.088C188.758 374.027 188.365 373.544 187.64 372.637C187.64 367.319 187.852 355.503 188.275 337.19L189.272 288.959L189.091 286.692C188.668 280.709 188.245 277.173 187.821 276.085C187.459 274.937 186.703 274.332 185.555 274.272C184.407 274.151 183.56 274.091 183.016 274.091L179.39 274.272L156.907 273.909C156.121 272.338 155.728 268.802 155.728 263.302L155.909 255.324V252.876C155.849 243.206 155.758 238.038 155.637 237.374C155.758 237.374 156 237.434 156.363 237.555L271.772 236.558C274.129 236.558 275.61 236.739 276.214 237.102C276.819 237.404 277.121 238.008 277.121 238.915V262.849L277.212 270.102ZM417.28 341.995L417.19 352.783C417.19 357.316 417.25 364.478 417.371 374.269C416.525 375.418 409.816 375.992 397.245 375.992C384.673 375.992 373.431 375.81 363.519 375.448C363.398 375.327 362.824 374.571 361.797 373.181V358.676L361.978 330.843C361.978 328.124 361.676 326.522 361.071 326.038C360.467 325.555 358.624 325.313 355.541 325.313H354.272C348.53 325.313 343.997 325.585 340.673 326.129V338.821L340.492 373.907C339.585 374.874 332 375.357 317.736 375.357H313.385C301.055 375.357 292.08 375.176 286.459 374.813C285.31 374.451 284.736 370.159 284.736 361.94L285.28 341.904L286.187 260.673V256.321C286.247 255.415 286.277 252.272 286.277 246.893C286.277 241.453 286.61 238.008 287.275 236.558H287.728C291.717 236.679 294.648 236.739 296.522 236.739H306.676L317.646 236.558H321.091C331.365 236.558 337.349 237.736 339.041 240.093C339.887 241.302 340.31 243.146 340.31 245.624L340.038 256.956V261.217L339.495 279.168C339.495 280.497 339.585 282.25 339.766 284.426H345.387L347.654 284.516H354.907C357.566 284.516 360.286 284.305 363.066 283.882V262.396L363.157 255.687V249.431L363.066 247.981V243.357C363.066 239.791 363.217 237.615 363.519 236.83C363.882 236.044 364.758 235.651 366.148 235.651L367.962 235.742H373.854L393.437 235.198C409.03 235.198 416.827 236.437 416.827 238.915V245.352L416.918 247.527L416.827 252.242V266.294L417.28 324.135C417.28 325.102 417.22 326.371 417.099 327.942V332.294C417.099 334.228 417.159 336.766 417.28 339.909V341.995ZM435.775 260.764L435.321 236.92C435.382 236.92 435.593 237.011 435.956 237.192C481.89 236.407 516.492 235.984 539.761 235.923C540.003 236.044 540.184 236.225 540.305 236.467V262.033C540.305 264.511 540.245 266.536 540.124 268.107C539.821 269.074 538.038 269.558 534.775 269.558H534.14C519.514 269.558 504.283 269.316 488.448 268.832C488.448 269.376 488.357 270.343 488.176 271.734C488.055 273.124 487.964 274.121 487.904 274.725L487.451 278.17C487.148 280.467 486.937 284.456 486.816 290.137L514.92 289.503C519.756 289.382 523.261 289.321 525.437 289.321H526.887C530.574 289.321 532.992 289.442 534.14 289.684C535.288 289.865 535.863 290.47 535.863 291.497L535.772 292.223V294.398L536.225 317.698L536.135 317.788V317.698C517.761 318.604 503.074 319.058 492.074 319.058H487.813V340.997L537.041 339.456C539.761 339.456 541.484 339.849 542.209 340.635C542.148 342.206 542.118 344.442 542.118 347.343L542.753 372.003C542.753 373.514 542.088 374.39 540.758 374.632L510.659 374.36C504.736 374.36 492.951 374.571 475.302 374.995L460.434 375.357C449.918 375.72 442.121 375.901 437.044 375.901L436.772 375.72H436.863C436.258 375.115 435.684 374.541 435.14 373.997V370.824L435.684 273.909L435.775 260.764ZM594.519 236.648L623.621 236.376C629.786 236.376 635.376 236.497 640.393 236.739C653.871 237.102 664.115 240.275 671.126 246.258C678.198 252.242 681.734 260.673 681.734 271.552C681.734 279.107 679.527 285.574 675.115 290.953C670.703 296.272 664.266 300.956 655.805 305.005C669.223 309.236 677.352 319.511 680.192 335.83C680.857 339.396 681.371 343.475 681.734 348.069C682.157 352.662 682.489 355.745 682.731 357.316L683.637 361.94C684.604 367.379 685.451 371.308 686.176 373.725L685.813 373.997C675.538 374.662 666.14 374.995 657.618 374.995C649.157 374.995 641.662 374.843 635.135 374.541H634.591C632.717 374.541 630.723 365.626 628.607 347.797L628.154 343.898C627.912 337.25 626.734 332.777 624.618 330.481C622.563 328.184 618.967 327.036 613.83 327.036L612.651 327.126H607.846V354.687L607.937 357.588V374.179C607.756 374.783 607.302 375.146 606.577 375.266C599.929 375.508 590.53 375.629 578.382 375.629C566.294 375.629 558.316 375.659 554.448 375.72L553.904 375.538L553.723 375.629C553.602 375.629 553.42 375.538 553.179 375.357L553.36 367.198L553.269 364.478L553.632 326.854V320.236L553.723 313.437L553.813 289.956L553.904 286.874L553.632 266.294C553.632 266.294 553.753 256.654 553.995 237.374C553.995 236.89 555.717 236.648 559.162 236.648L564.964 236.739H570.495L582.008 236.83L594.519 236.648ZM686.72 373.453L686.266 373.725V373.544C686.266 373.484 686.418 373.453 686.72 373.453ZM686.266 373.725V373.816C686.206 373.816 686.176 373.786 686.176 373.725H686.266ZM628.063 266.203C624.437 264.632 619.602 263.846 613.558 263.846H608.299C607.635 264.813 607.302 269.92 607.302 279.168C607.302 288.354 607.453 294.519 607.756 297.662C626.673 297.239 636.132 290.712 636.132 278.08C636.132 272.701 633.442 268.742 628.063 266.203ZM695.786 260.764L695.332 236.92C695.393 236.92 695.604 237.011 695.967 237.192C741.901 236.407 776.503 235.984 799.772 235.923C800.014 236.044 800.195 236.225 800.316 236.467V262.033C800.316 264.511 800.256 266.536 800.135 268.107C799.832 269.074 798.049 269.558 794.786 269.558H794.151C779.525 269.558 764.294 269.316 748.459 268.832C748.459 269.376 748.368 270.343 748.187 271.734C748.066 273.124 747.975 274.121 747.915 274.725L747.462 278.17C747.159 280.467 746.948 284.456 746.827 290.137L774.931 289.503C779.766 289.382 783.272 289.321 785.448 289.321H786.898C790.585 289.321 793.003 289.442 794.151 289.684C795.299 289.865 795.874 290.47 795.874 291.497L795.783 292.223V294.398L796.236 317.698L796.146 317.788V317.698C777.772 318.604 763.085 319.058 752.085 319.058H747.824V340.997L797.052 339.456C799.772 339.456 801.495 339.849 802.22 340.635C802.159 342.206 802.129 344.442 802.129 347.343L802.764 372.003C802.764 373.514 802.099 374.39 800.769 374.632L770.67 374.36C764.747 374.36 752.962 374.571 735.313 374.995L720.445 375.357C709.929 375.72 702.132 375.901 697.055 375.901L696.783 375.72H696.874C696.269 375.115 695.695 374.541 695.151 373.997V370.824L695.695 273.909L695.786 260.764ZM918.989 240.365L918.898 248.797C918.898 257.077 918.778 264.451 918.536 270.918C911.464 271.522 901.794 271.824 889.525 271.824L868.582 271.915V274.544L868.401 282.522C868.401 284.637 868.492 286.692 868.673 288.687C883.783 287.418 894.964 286.783 902.217 286.783C909.53 286.783 914.003 287.327 915.635 288.415V318.786C915.635 320.78 915.242 322.11 914.456 322.775C913.67 323.44 912.462 323.772 910.83 323.772H909.651L904.756 323.591C893.937 324.195 881.94 324.648 868.764 324.951L869.398 361.033L869.308 364.115V372.637C869.308 374.451 868.764 375.418 867.676 375.538L815.819 375.992C815.698 375.629 815.245 374.813 814.459 373.544C814.217 369.555 814.096 366.17 814.096 363.39L814.64 237.283C814.64 236.497 818.75 236.104 826.97 236.104L829.236 236.195H835.401L879.19 235.742L910.286 236.104H913.368L914.728 236.014C916.42 236.014 917.539 236.407 918.082 237.192C918.687 237.918 918.989 238.975 918.989 240.365ZM973.929 304.099C973.929 304.159 973.898 304.31 973.838 304.552V304.824C973.596 307.363 973.475 310.203 973.475 313.346C973.475 316.489 973.717 319.813 974.201 323.319C974.745 326.824 975.591 330.33 976.739 333.835C977.948 337.341 979.791 340.181 982.269 342.357C984.929 344.654 987.89 345.802 991.154 345.802C994.478 345.802 997.258 345.349 999.495 344.442C1001.79 343.475 1003.7 342.266 1005.21 340.816C1006.78 339.365 1008.14 337.401 1009.29 334.923C1012.19 328.335 1013.64 318.121 1013.64 304.28C1013.64 290.198 1012.01 280.346 1008.74 274.725C1005.54 269.044 1000.67 266.203 994.146 266.203C990.882 266.203 988.011 266.989 985.533 268.56C983.115 270.132 981.272 271.764 980.003 273.456C978.794 275.148 977.525 278.745 976.195 284.245C974.926 289.745 974.291 294.821 974.291 299.475L973.929 304.099ZM921.799 304.824L921.981 302.83C922.706 295.275 923.673 288.596 924.882 282.794C926.091 276.931 928.055 271.462 930.775 266.385C937.242 255.203 946.247 246.742 957.791 241C969.396 235.198 981.876 232.297 995.234 232.297C1008.65 232.297 1020.83 234.986 1031.77 240.365C1038.3 243.569 1043.4 247.618 1047.09 252.514C1054.16 261.338 1058.82 269.467 1061.05 276.901C1063.29 284.335 1064.41 292.918 1064.41 302.648C1064.41 324.286 1059.93 340.786 1050.99 352.148L1046.82 357.679C1041.2 364.206 1033.25 369.253 1022.98 372.819C1012.7 376.324 1002.52 378.137 992.423 378.258C975.137 378.258 960.964 374.632 949.904 367.379C931.168 355.231 921.799 334.379 921.799 304.824ZM1118.53 236.648L1147.63 236.376C1153.8 236.376 1159.39 236.497 1164.4 236.739C1177.88 237.102 1188.13 240.275 1195.14 246.258C1202.21 252.242 1205.74 260.673 1205.74 271.552C1205.74 279.107 1203.54 285.574 1199.13 290.953C1194.71 296.272 1188.28 300.956 1179.82 305.005C1193.23 309.236 1201.36 319.511 1204.2 335.83C1204.87 339.396 1205.38 343.475 1205.74 348.069C1206.17 352.662 1206.5 355.745 1206.74 357.316L1207.65 361.94C1208.62 367.379 1209.46 371.308 1210.19 373.725L1209.82 373.997C1199.55 374.662 1190.15 374.995 1181.63 374.995C1173.17 374.995 1165.67 374.843 1159.15 374.541H1158.6C1156.73 374.541 1154.73 365.626 1152.62 347.797L1152.16 343.898C1151.92 337.25 1150.74 332.777 1148.63 330.481C1146.57 328.184 1142.98 327.036 1137.84 327.036L1136.66 327.126H1131.86V354.687L1131.95 357.588V374.179C1131.77 374.783 1131.31 375.146 1130.59 375.266C1123.94 375.508 1114.54 375.629 1102.39 375.629C1090.3 375.629 1082.33 375.659 1078.46 375.72L1077.91 375.538L1077.73 375.629C1077.61 375.629 1077.43 375.538 1077.19 375.357L1077.37 367.198L1077.28 364.478L1077.64 326.854V320.236L1077.73 313.437L1077.82 289.956L1077.91 286.874L1077.64 266.294C1077.64 266.294 1077.76 256.654 1078.01 237.374C1078.01 236.89 1079.73 236.648 1083.17 236.648L1088.98 236.739H1094.51L1106.02 236.83L1118.53 236.648ZM1210.73 373.453L1210.28 373.725V373.544C1210.28 373.484 1210.43 373.453 1210.73 373.453ZM1210.28 373.725V373.816C1210.22 373.816 1210.19 373.786 1210.19 373.725H1210.28ZM1152.07 266.203C1148.45 264.632 1143.61 263.846 1137.57 263.846H1132.31C1131.65 264.813 1131.31 269.92 1131.31 279.168C1131.31 288.354 1131.46 294.519 1131.77 297.662C1150.68 297.239 1160.14 290.712 1160.14 278.08C1160.14 272.701 1157.45 268.742 1152.07 266.203ZM1219.8 260.764L1219.34 236.92C1219.4 236.92 1219.62 237.011 1219.98 237.192C1265.91 236.407 1300.51 235.984 1323.78 235.923C1324.02 236.044 1324.21 236.225 1324.33 236.467V262.033C1324.33 264.511 1324.27 266.536 1324.15 268.107C1323.84 269.074 1322.06 269.558 1318.8 269.558H1318.16C1303.54 269.558 1288.3 269.316 1272.47 268.832C1272.47 269.376 1272.38 270.343 1272.2 271.734C1272.08 273.124 1271.99 274.121 1271.93 274.725L1271.47 278.17C1271.17 280.467 1270.96 284.456 1270.84 290.137L1298.94 289.503C1303.78 289.382 1307.28 289.321 1309.46 289.321H1310.91C1314.6 289.321 1317.01 289.442 1318.16 289.684C1319.31 289.865 1319.88 290.47 1319.88 291.497L1319.79 292.223V294.398L1320.25 317.698L1320.16 317.788V317.698C1301.78 318.604 1287.1 319.058 1276.1 319.058H1271.84V340.997L1321.06 339.456C1323.78 339.456 1325.51 339.849 1326.23 340.635C1326.17 342.206 1326.14 344.442 1326.14 347.343L1326.77 372.003C1326.77 373.514 1326.11 374.39 1324.78 374.632L1294.68 374.36C1288.76 374.36 1276.97 374.571 1259.32 374.995L1244.46 375.357C1233.94 375.72 1226.14 375.901 1221.07 375.901L1220.79 375.72H1220.88C1220.28 375.115 1219.71 374.541 1219.16 373.997V370.824L1219.71 273.909L1219.8 260.764Z" fill="white"/>
<path d="M1178.16 517.831C1178.11 518.485 1176.72 518.813 1174.01 518.813H1167.06L1162.38 518.888H1157.77L1150.44 518.964C1143.14 518.964 1137.08 518.787 1132.24 518.435C1132.09 518.385 1131.91 518.082 1131.71 517.529L1131.34 515.943C1130.88 510.757 1129.7 505.747 1127.79 500.914L1095.46 501.216C1095.26 502.072 1094.61 504.615 1093.5 508.844C1092.39 513.073 1091.56 516.27 1091.01 518.435C1090.5 518.938 1088.11 519.19 1083.83 519.19L1081.95 519.115H1077.57L1057.93 519.568H1055.66L1053.55 519.643H1048.26C1047.91 519.291 1047.53 518.838 1047.13 518.284C1052.16 500.864 1058.99 479.265 1067.6 453.487L1069.33 448.125H1069.26L1071.3 441.857C1071.95 439.843 1073.81 434.254 1076.89 425.091C1080.01 415.928 1081.95 410.012 1082.7 407.344C1083.51 404.675 1083.98 403.291 1084.14 403.19H1096.67L1123.48 402.812L1130.73 403.19L1136.7 402.812C1139.72 402.812 1141.23 403.417 1141.23 404.625C1146.26 418.672 1152.99 438.886 1161.39 465.268C1169.8 491.65 1174.53 506.477 1175.59 509.75L1176.65 513.526C1177 514.885 1177.5 516.32 1178.16 517.831ZM1103.39 476.596L1106.49 476.672L1124.54 476.596C1123.78 470.605 1123.2 466.2 1122.8 463.38L1119.93 450.466C1116.91 437.124 1115.35 430.327 1115.25 430.076C1115.15 429.824 1115.05 429.597 1114.95 429.396C1114.9 429.144 1114.85 428.993 1114.8 428.943C1114.75 428.842 1114.67 428.691 1114.57 428.49C1114.52 428.288 1114.44 428.162 1114.34 428.112C1114.29 428.011 1114.22 427.885 1114.12 427.734C1113.76 427.13 1113.03 426.602 1111.93 426.148C1110.57 426.451 1106.51 441.605 1099.77 471.612L1098.94 476.596H1103.39ZM1221.51 452.052C1220.9 466.3 1220.6 480.951 1220.6 496.005V518.51H1215.09L1213.2 518.435L1186.39 518.661C1184.68 518.661 1183.77 518.687 1183.67 518.737C1183.67 518.687 1183.77 518.259 1183.97 517.453V517L1184.05 516.698C1183.8 513.073 1183.67 508.668 1183.67 503.482L1183.97 419.125L1183.9 415.198V411.422L1183.75 404.323C1183.75 403.819 1184.02 403.291 1184.58 402.737H1194.92L1200.97 402.661C1215.16 402.661 1225.31 402.863 1231.4 403.266C1237.54 403.668 1241.95 403.87 1244.62 403.87C1246.08 412.53 1248.24 424.009 1251.11 438.307L1256.47 465.344H1259.12L1268.78 415.953C1268.93 415.198 1269.29 413.008 1269.84 409.383C1270.39 405.707 1270.82 403.668 1271.13 403.266H1271.43L1320.59 402.812L1323.54 402.888H1331.99C1332.45 403.089 1332.7 404.021 1332.75 405.682L1333.51 434.229C1334.11 457.892 1334.54 476.319 1334.79 489.51C1334.79 499.681 1334.64 509.221 1334.34 518.133C1334.18 518.737 1333.18 519.089 1331.32 519.19L1327.92 519.341C1325.2 519.442 1323.18 519.492 1321.88 519.492H1317.95C1313.06 519.543 1305.86 519.568 1296.35 519.568C1294.59 518.007 1293.71 511.26 1293.71 499.328L1293.86 475.615V469.497C1293.86 464.11 1293.83 460.133 1293.78 457.565L1290.91 457.036C1289.25 463.128 1286.05 476.697 1281.32 497.742L1280.64 500.763C1280.29 502.324 1279.68 505.118 1278.83 509.146C1278.02 513.123 1277.37 516.144 1276.86 518.208C1276.26 518.913 1273.59 519.266 1268.86 519.266H1267.88L1259.42 519.039L1254.81 519.115H1251.26L1245.3 519.19H1243.18C1240.87 519.19 1239.58 518.661 1239.33 517.604L1239.41 517.68L1232.53 487.698C1232.33 486.943 1231.88 485.306 1231.17 482.789C1230.47 480.221 1230.07 478.082 1229.97 476.37L1224.3 451.901L1221.51 452.052Z" fill="white"/>
<rect x="439" y="9" width="901" height="95" fill="white"/>
<rect y="229" width="143" height="144" fill="white"/>
<rect x="1007" y="119" width="331" height="98" fill="white"/>
<rect y="392" width="951" height="115" fill="white"/>
</svg>
